<svg width="42" height="43" viewBox="0 0 42 43" fill="none" xmlns="http://www.w3.org/2000/svg">
<g id="Aetna">
<rect x="0.161133" y="0.302734" width="41.8067" height="41.8067" rx="20.9034" fill="url(#paint0_linear_214_590)"/>
<path id="Vector" d="M29.2793 12.9446C28.6226 12.2879 27.7645 11.9596 26.9138 11.9596C26.0557 11.9596 25.1901 12.2879 24.5334 12.9521L20.6382 16.8547L16.7355 12.9521C16.0714 12.2805 15.2133 11.9521 14.3551 11.9521C13.497 11.9521 12.6388 12.2805 11.9822 12.9371L7.23628 17.683C5.93042 18.9889 5.93042 21.1156 7.24374 22.4289L20.6307 35.8159L34.0177 22.4289C35.3311 21.1231 35.3236 18.9964 34.0177 17.683L29.2793 12.9446Z" fill="#7D3F98"/>
</g>
<defs>
<linearGradient id="paint0_linear_214_590" x1="21.0645" y1="0.302734" x2="21.0645" y2="42.1095" gradientUnits="userSpaceOnUse">
<stop stop-color="#F1E0F9"/>
<stop offset="1" stop-color="white" stop-opacity="0.81"/>
</linearGradient>
</defs>
</svg>
