<svg width="1465" height="1009" viewBox="0 0 1465 1009" fill="none" xmlns="http://www.w3.org/2000/svg">
<path d="M732.44 1373.33C1135.83 1373.33 1462.84 1036.42 1462.84 620.81C1462.84 205.204 1135.83 -131.711 732.44 -131.711C329.051 -131.711 2.04004 205.204 2.04004 620.81C2.04004 1036.42 329.051 1373.33 732.44 1373.33Z" stroke="black" stroke-opacity="0.18" stroke-width="2.61292" stroke-miterlimit="10" style="mix-blend-mode:soft-light"/>
<path d="M732.439 1344.25C1120.24 1344.25 1434.61 1020.36 1434.61 620.811C1434.61 221.265 1120.24 -102.63 732.439 -102.63C344.639 -102.63 30.2646 221.265 30.2646 620.811C30.2646 1020.36 344.639 1344.25 732.439 1344.25Z" stroke="black" stroke-opacity="0.18" stroke-width="2.61292" stroke-miterlimit="10" style="mix-blend-mode:soft-light"/>
<path d="M732.442 1315.16C1104.65 1315.16 1406.38 1004.29 1406.38 620.81C1406.38 237.331 1104.65 -73.541 732.442 -73.541C360.235 -73.541 58.502 237.331 58.502 620.81C58.502 1004.29 360.235 1315.16 732.442 1315.16Z" stroke="black" stroke-opacity="0.18" stroke-width="2.61292" stroke-miterlimit="10" style="mix-blend-mode:soft-light"/>
<path d="M732.441 1286.08C1089.06 1286.08 1378.15 988.229 1378.15 620.81C1378.15 253.391 1089.06 -44.4604 732.441 -44.4604C375.823 -44.4604 86.7266 253.391 86.7266 620.81C86.7266 988.229 375.823 1286.08 732.441 1286.08Z" stroke="black" stroke-opacity="0.18" stroke-width="2.61292" stroke-miterlimit="10" style="mix-blend-mode:soft-light"/>
<path d="M732.44 1257C1073.47 1257 1349.93 972.168 1349.93 620.81C1349.93 269.452 1073.47 -15.3799 732.44 -15.3799C391.41 -15.3799 114.951 269.452 114.951 620.81C114.951 972.168 391.41 1257 732.44 1257Z" stroke="black" stroke-opacity="0.18" stroke-width="2.61292" stroke-miterlimit="10" style="mix-blend-mode:soft-light"/>
<path d="M732.442 1227.92C1057.88 1227.92 1321.7 956.107 1321.7 620.81C1321.7 285.513 1057.88 13.7012 732.442 13.7012C407.001 13.7012 143.18 285.513 143.18 620.81C143.18 956.107 407.001 1227.92 732.442 1227.92Z" stroke="black" stroke-opacity="0.18" stroke-width="2.61292" stroke-miterlimit="10" style="mix-blend-mode:soft-light"/>
<path d="M732.44 1198.83C1042.29 1198.83 1293.47 940.042 1293.47 620.81C1293.47 301.579 1042.29 42.7905 732.44 42.7905C422.593 42.7905 171.412 301.579 171.412 620.81C171.412 940.042 422.593 1198.83 732.44 1198.83Z" stroke="black" stroke-opacity="0.18" stroke-width="2.61292" stroke-miterlimit="10" style="mix-blend-mode:soft-light"/>
<path d="M732.439 1169.75C1026.7 1169.75 1265.24 923.981 1265.24 620.81C1265.24 317.64 1026.7 71.8711 732.439 71.8711C438.181 71.8711 199.637 317.64 199.637 620.81C199.637 923.981 438.181 1169.75 732.439 1169.75Z" stroke="black" stroke-opacity="0.18" stroke-width="2.61292" stroke-miterlimit="10" style="mix-blend-mode:soft-light"/>
<path d="M732.44 1140.67C1011.11 1140.67 1237.02 907.92 1237.02 620.81C1237.02 333.701 1011.11 100.952 732.44 100.952C453.77 100.952 227.863 333.701 227.863 620.81C227.863 907.92 453.77 1140.67 732.44 1140.67Z" stroke="black" stroke-opacity="0.18" stroke-width="2.61292" stroke-miterlimit="10" style="mix-blend-mode:soft-light"/>
<path d="M732.439 1111.59C995.52 1111.59 1208.79 891.859 1208.79 620.81C1208.79 349.761 995.52 130.033 732.439 130.033C469.357 130.033 256.088 349.761 256.088 620.81C256.088 891.859 469.357 1111.59 732.439 1111.59Z" stroke="black" stroke-opacity="0.18" stroke-width="2.61292" stroke-miterlimit="10" style="mix-blend-mode:soft-light"/>
<path d="M732.441 1082.5C979.929 1082.5 1180.56 875.794 1180.56 620.81C1180.56 365.827 979.929 159.122 732.441 159.122C484.953 159.122 284.324 365.827 284.324 620.81C284.324 875.794 484.953 1082.5 732.441 1082.5Z" stroke="black" stroke-opacity="0.18" stroke-width="2.61292" stroke-miterlimit="10" style="mix-blend-mode:soft-light"/>
<path d="M732.44 1053.42C964.339 1053.42 1152.33 859.733 1152.33 620.81C1152.33 381.887 964.339 188.202 732.44 188.202C500.54 188.202 312.549 381.887 312.549 620.81C312.549 859.733 500.54 1053.42 732.44 1053.42Z" stroke="black" stroke-opacity="0.18" stroke-width="2.61292" stroke-miterlimit="10" style="mix-blend-mode:soft-light"/>
<path d="M732.438 1024.34C948.749 1024.34 1124.1 843.672 1124.1 620.81C1124.1 397.948 948.749 217.283 732.438 217.283C516.128 217.283 340.773 397.948 340.773 620.81C340.773 843.672 516.128 1024.34 732.438 1024.34Z" stroke="black" stroke-opacity="0.18" stroke-width="2.61292" stroke-miterlimit="10" style="mix-blend-mode:soft-light"/>
<path d="M732.441 995.257C933.163 995.257 1095.88 827.611 1095.88 620.81C1095.88 414.01 933.163 246.364 732.441 246.364C531.719 246.364 369.002 414.01 369.002 620.81C369.002 827.611 531.719 995.257 732.441 995.257Z" stroke="black" stroke-opacity="0.18" stroke-width="2.61292" stroke-miterlimit="10" style="mix-blend-mode:soft-light"/>
<path d="M732.44 966.167C917.569 966.167 1067.65 811.546 1067.65 620.81C1067.65 430.075 917.569 275.453 732.44 275.453C547.312 275.453 397.235 430.075 397.235 620.81C397.235 811.546 547.312 966.167 732.44 966.167Z" stroke="black" stroke-opacity="0.18" stroke-width="2.61292" stroke-miterlimit="10" style="mix-blend-mode:soft-light"/>
<path d="M732.441 937.087C901.981 937.087 1039.42 795.485 1039.42 620.81C1039.42 446.136 901.981 304.534 732.441 304.534C562.901 304.534 425.462 446.136 425.462 620.81C425.462 795.485 562.901 937.087 732.441 937.087Z" stroke="black" stroke-opacity="0.18" stroke-width="2.61292" stroke-miterlimit="10" style="mix-blend-mode:soft-light"/>
<path d="M732.44 908.006C886.391 908.006 1011.19 779.424 1011.19 620.81C1011.19 462.197 886.391 333.615 732.44 333.615C578.489 333.615 453.687 462.197 453.687 620.81C453.687 779.424 578.489 908.006 732.44 908.006Z" stroke="black" stroke-opacity="0.18" stroke-width="2.61292" stroke-miterlimit="10" style="mix-blend-mode:soft-light"/>
<path d="M732.44 878.925C870.803 878.925 982.967 763.363 982.967 620.81C982.967 478.257 870.803 362.695 732.44 362.695C594.078 362.695 481.913 478.257 481.913 620.81C481.913 763.363 594.078 878.925 732.44 878.925Z" stroke="black" stroke-opacity="0.18" stroke-width="2.61292" stroke-miterlimit="10" style="mix-blend-mode:soft-light"/>
<path d="M732.441 849.836C855.21 849.836 954.734 747.298 954.734 620.81C954.734 494.323 855.21 391.785 732.441 391.785C609.671 391.785 510.147 494.323 510.147 620.81C510.147 747.298 609.671 849.836 732.441 849.836Z" stroke="black" stroke-opacity="0.18" stroke-width="2.61292" stroke-miterlimit="10" style="mix-blend-mode:soft-light"/>
<path d="M732.438 820.755C839.619 820.755 926.506 731.237 926.506 620.811C926.506 510.384 839.619 420.866 732.438 420.866C625.258 420.866 538.371 510.384 538.371 620.811C538.371 731.237 625.258 820.755 732.438 820.755Z" stroke="black" stroke-opacity="0.18" stroke-width="2.61292" stroke-miterlimit="10" style="mix-blend-mode:soft-light"/>
<path d="M732.439 791.674C824.031 791.674 898.28 715.176 898.28 620.81C898.28 526.445 824.031 449.946 732.439 449.946C640.847 449.946 566.598 526.445 566.598 620.81C566.598 715.176 640.847 791.674 732.439 791.674Z" stroke="black" stroke-opacity="0.18" stroke-width="2.61292" stroke-miterlimit="10" style="mix-blend-mode:soft-light"/>
<path d="M732.438 762.594C808.441 762.594 870.053 699.115 870.053 620.81C870.053 542.505 808.441 479.027 732.438 479.027C656.435 479.027 594.822 542.505 594.822 620.81C594.822 699.115 656.435 762.594 732.438 762.594Z" stroke="black" stroke-opacity="0.18" stroke-width="2.61292" stroke-miterlimit="10" style="mix-blend-mode:soft-light"/>
<path d="M732.439 733.505C792.849 733.505 841.821 683.05 841.821 620.81C841.821 558.571 792.849 508.116 732.439 508.116C672.029 508.116 623.058 558.571 623.058 620.81C623.058 683.05 672.029 733.505 732.439 733.505Z" stroke="black" stroke-opacity="0.18" stroke-width="2.61292" stroke-miterlimit="10" style="mix-blend-mode:soft-light"/>
<path d="M732.44 704.424C777.261 704.424 813.595 666.989 813.595 620.811C813.595 574.632 777.261 537.197 732.44 537.197C687.619 537.197 651.284 574.632 651.284 620.811C651.284 666.989 687.619 704.424 732.44 704.424Z" stroke="black" stroke-opacity="0.18" stroke-width="2.61292" stroke-miterlimit="10" style="mix-blend-mode:soft-light"/>
</svg>
